<mxfile host="app.diagrams.net" modified="2021-05-27T11:41:19.472Z" agent="5.0 (Windows NT 10.0; Win64; x64) AppleWebKit/537.36 (KHTML, like Gecko) Chrome/90.0.4430.212 Safari/537.36" etag="ws603WT7fxVdQaLMOeJL" version="14.7.2" type="github">
  <diagram id="V60buMN5IC9PznwHDx5t" name="第 1 页">
    <mxGraphModel dx="1422" dy="762" grid="0" gridSize="10" guides="1" tooltips="1" connect="1" arrows="1" fold="1" page="1" pageScale="1" pageWidth="827" pageHeight="1169" math="0" shadow="0">
      <root>
        <mxCell id="0" />
        <mxCell id="1" parent="0" />
        <mxCell id="_TWFb61GFq_b5vOMCCr4-3" value="" style="edgeStyle=orthogonalEdgeStyle;rounded=0;orthogonalLoop=1;jettySize=auto;html=1;entryX=0;entryY=0.5;entryDx=0;entryDy=0;" edge="1" parent="1" source="_TWFb61GFq_b5vOMCCr4-1" target="_TWFb61GFq_b5vOMCCr4-4">
          <mxGeometry relative="1" as="geometry">
            <mxPoint x="220" y="270" as="targetPoint" />
          </mxGeometry>
        </mxCell>
        <mxCell id="_TWFb61GFq_b5vOMCCr4-1" value="&lt;font style=&quot;font-size: 32px&quot;&gt;0&lt;/font&gt;" style="rounded=1;whiteSpace=wrap;html=1;strokeWidth=2;fillWeight=4;hachureGap=8;hachureAngle=45;fillColor=#dae8fc;sketch=1;strokeColor=#6c8ebf;" vertex="1" parent="1">
          <mxGeometry x="60" y="240" width="80" height="40" as="geometry" />
        </mxCell>
        <mxCell id="_TWFb61GFq_b5vOMCCr4-4" value="&lt;font style=&quot;font-size: 26px&quot;&gt;NULL&lt;/font&gt;" style="rounded=1;whiteSpace=wrap;html=1;strokeWidth=2;fillWeight=4;hachureGap=8;hachureAngle=45;fillColor=#dae8fc;sketch=1;strokeColor=#6c8ebf;" vertex="1" parent="1">
          <mxGeometry x="180" y="240" width="80" height="40" as="geometry" />
        </mxCell>
        <mxCell id="_TWFb61GFq_b5vOMCCr4-5" value="" style="edgeStyle=orthogonalEdgeStyle;rounded=0;orthogonalLoop=1;jettySize=auto;html=1;entryX=0;entryY=0.5;entryDx=0;entryDy=0;" edge="1" parent="1" source="_TWFb61GFq_b5vOMCCr4-6" target="_TWFb61GFq_b5vOMCCr4-7">
          <mxGeometry relative="1" as="geometry">
            <mxPoint x="220" y="420" as="targetPoint" />
          </mxGeometry>
        </mxCell>
        <mxCell id="_TWFb61GFq_b5vOMCCr4-6" value="&lt;font style=&quot;font-size: 32px&quot;&gt;4&lt;/font&gt;" style="rounded=1;whiteSpace=wrap;html=1;strokeWidth=2;fillWeight=4;hachureGap=8;hachureAngle=45;fillColor=#d5e8d4;sketch=1;strokeColor=#82b366;" vertex="1" parent="1">
          <mxGeometry x="60" y="390" width="80" height="40" as="geometry" />
        </mxCell>
        <mxCell id="_TWFb61GFq_b5vOMCCr4-7" value="&lt;font style=&quot;font-size: 26px&quot;&gt;2&lt;/font&gt;" style="rounded=1;whiteSpace=wrap;html=1;strokeWidth=2;fillWeight=4;hachureGap=8;hachureAngle=45;fillColor=#d5e8d4;sketch=1;strokeColor=#82b366;" vertex="1" parent="1">
          <mxGeometry x="180" y="390" width="80" height="40" as="geometry" />
        </mxCell>
        <mxCell id="_TWFb61GFq_b5vOMCCr4-8" value="" style="edgeStyle=orthogonalEdgeStyle;rounded=0;orthogonalLoop=1;jettySize=auto;html=1;entryX=0;entryY=0.5;entryDx=0;entryDy=0;" edge="1" parent="1" source="_TWFb61GFq_b5vOMCCr4-9" target="_TWFb61GFq_b5vOMCCr4-10">
          <mxGeometry relative="1" as="geometry">
            <mxPoint x="460" y="420" as="targetPoint" />
          </mxGeometry>
        </mxCell>
        <mxCell id="_TWFb61GFq_b5vOMCCr4-9" value="&lt;font style=&quot;font-size: 32px&quot;&gt;1&lt;/font&gt;" style="rounded=1;whiteSpace=wrap;html=1;strokeWidth=2;fillWeight=4;hachureGap=8;hachureAngle=45;fillColor=#d5e8d4;sketch=1;strokeColor=#82b366;" vertex="1" parent="1">
          <mxGeometry x="300" y="390" width="80" height="40" as="geometry" />
        </mxCell>
        <mxCell id="_TWFb61GFq_b5vOMCCr4-13" value="" style="edgeStyle=orthogonalEdgeStyle;rounded=0;orthogonalLoop=1;jettySize=auto;html=1;fontColor=#FF0000;" edge="1" parent="1" source="_TWFb61GFq_b5vOMCCr4-10" target="_TWFb61GFq_b5vOMCCr4-12">
          <mxGeometry relative="1" as="geometry" />
        </mxCell>
        <mxCell id="_TWFb61GFq_b5vOMCCr4-10" value="&lt;font style=&quot;font-size: 26px&quot;&gt;3&lt;/font&gt;" style="rounded=1;whiteSpace=wrap;html=1;strokeWidth=2;fillWeight=4;hachureGap=8;hachureAngle=45;fillColor=#d5e8d4;sketch=1;strokeColor=#82b366;" vertex="1" parent="1">
          <mxGeometry x="420" y="390" width="80" height="40" as="geometry" />
        </mxCell>
        <mxCell id="_TWFb61GFq_b5vOMCCr4-11" value="" style="edgeStyle=orthogonalEdgeStyle;rounded=0;orthogonalLoop=1;jettySize=auto;html=1;" edge="1" parent="1" source="_TWFb61GFq_b5vOMCCr4-7" target="_TWFb61GFq_b5vOMCCr4-9">
          <mxGeometry relative="1" as="geometry">
            <mxPoint x="290" y="410" as="targetPoint" />
            <mxPoint x="150" y="420" as="sourcePoint" />
          </mxGeometry>
        </mxCell>
        <mxCell id="_TWFb61GFq_b5vOMCCr4-12" value="&lt;font style=&quot;font-size: 26px&quot;&gt;NULL&lt;/font&gt;" style="rounded=1;whiteSpace=wrap;html=1;strokeWidth=2;fillWeight=4;hachureGap=8;hachureAngle=45;fillColor=#d5e8d4;sketch=1;strokeColor=#82b366;" vertex="1" parent="1">
          <mxGeometry x="540" y="390" width="80" height="40" as="geometry" />
        </mxCell>
        <mxCell id="_TWFb61GFq_b5vOMCCr4-14" value="dummyHead" style="text;html=1;resizable=0;autosize=1;align=center;verticalAlign=middle;points=[];fillColor=none;strokeColor=none;rounded=0;fontStyle=1;fontColor=#0000FF;fontSize=16;" vertex="1" parent="1">
          <mxGeometry x="55" y="168" width="106" height="23" as="geometry" />
        </mxCell>
        <mxCell id="_TWFb61GFq_b5vOMCCr4-15" value="" style="endArrow=classic;html=1;fontColor=#FF0000;" edge="1" parent="1">
          <mxGeometry width="50" height="50" relative="1" as="geometry">
            <mxPoint x="101" y="340" as="sourcePoint" />
            <mxPoint x="101" y="380" as="targetPoint" />
          </mxGeometry>
        </mxCell>
        <mxCell id="_TWFb61GFq_b5vOMCCr4-16" value="" style="endArrow=classic;html=1;fontColor=#FF0000;" edge="1" parent="1">
          <mxGeometry width="50" height="50" relative="1" as="geometry">
            <mxPoint x="99.5" y="193" as="sourcePoint" />
            <mxPoint x="99.5" y="233" as="targetPoint" />
          </mxGeometry>
        </mxCell>
        <mxCell id="_TWFb61GFq_b5vOMCCr4-17" value="head" style="text;html=1;resizable=0;autosize=1;align=center;verticalAlign=middle;points=[];fillColor=none;strokeColor=none;rounded=0;fontStyle=1;fontColor=#0000FF;fontSize=16;" vertex="1" parent="1">
          <mxGeometry x="77" y="309" width="47" height="23" as="geometry" />
        </mxCell>
        <mxCell id="_TWFb61GFq_b5vOMCCr4-20" value="" style="endArrow=classic;html=1;fontColor=#FF0000;" edge="1" parent="1">
          <mxGeometry width="50" height="50" relative="1" as="geometry">
            <mxPoint x="220" y="481" as="sourcePoint" />
            <mxPoint x="220" y="438" as="targetPoint" />
          </mxGeometry>
        </mxCell>
        <mxCell id="_TWFb61GFq_b5vOMCCr4-21" value="next" style="text;html=1;resizable=0;autosize=1;align=center;verticalAlign=middle;points=[];fillColor=none;strokeColor=none;rounded=0;fontStyle=1;fontColor=#0000FF;fontSize=16;" vertex="1" parent="1">
          <mxGeometry x="199" y="489" width="43" height="23" as="geometry" />
        </mxCell>
        <mxCell id="_TWFb61GFq_b5vOMCCr4-22" value="" style="endArrow=classic;html=1;fontColor=#FF0000;" edge="1" parent="1">
          <mxGeometry width="50" height="50" relative="1" as="geometry">
            <mxPoint x="102" y="480" as="sourcePoint" />
            <mxPoint x="102" y="437" as="targetPoint" />
          </mxGeometry>
        </mxCell>
        <mxCell id="_TWFb61GFq_b5vOMCCr4-23" value="cur" style="text;html=1;resizable=0;autosize=1;align=center;verticalAlign=middle;points=[];fillColor=none;strokeColor=none;rounded=0;fontStyle=1;fontColor=#0000FF;fontSize=16;" vertex="1" parent="1">
          <mxGeometry x="85" y="488" width="35" height="23" as="geometry" />
        </mxCell>
        <mxCell id="_TWFb61GFq_b5vOMCCr4-24" value="遍历原始链表，记录下一个位置防止链表断裂&lt;br&gt;将当前节点加入到傀儡头节点链表中指定位置（找位置也是遍历）" style="text;html=1;resizable=0;autosize=1;align=left;verticalAlign=middle;points=[];fillColor=none;strokeColor=none;rounded=0;fontStyle=1;fontColor=#0000FF;fontSize=16;" vertex="1" parent="1">
          <mxGeometry x="180" y="303" width="474" height="42" as="geometry" />
        </mxCell>
      </root>
    </mxGraphModel>
  </diagram>
</mxfile>
